<?xml version="1.0" standalone="no"?><!DOCTYPE svg PUBLIC "-//W3C//DTD SVG 1.1//EN" "http://www.w3.org/Graphics/SVG/1.1/DTD/svg11.dtd"><svg t="1562054312984" class="icon" viewBox="0 0 1024 1024" version="1.1" xmlns="http://www.w3.org/2000/svg" p-id="2020" xmlns:xlink="http://www.w3.org/1999/xlink" width="200" height="200"><defs><style type="text/css"></style></defs><path d="M224.004267 736c19.2 0 32-12.8 32-32s-12.8-32-32-32C169.604267 672 128.004267 713.6 128.004267 768s41.6 96 96 96c19.2 0 32-12.8 32-32s-12.8-32-32-32-32-12.8-32-32 12.8-32 32-32zM800.004267 672c-19.2 0-32 12.8-32 32s12.8 32 32 32 32 12.8 32 32-12.8 32-32 32-32 12.8-32 32 12.8 32 32 32c54.4 0 96-41.6 96-96s-41.6-96-96-96z" p-id="2021" fill="#13227a"></path><path d="M896.004267 25.6c-3.2-16-16-25.6-32-25.6h-128c-19.2 0-32 12.8-32 32s12.8 32 32 32h102.4l89.6 521.6a218.538667 218.538667 0 0 0-128-41.6H224.004267a218.538667 218.538667 0 0 0-128 41.6L185.604267 64h102.4c19.2 0 32-12.8 32-32S307.204267 0 288.004267 0h-128c-16 0-28.8 9.6-32 25.6L12.804267 694.4C6.404267 716.8 0.004267 742.4 0.004267 764.8a222.634667 222.634667 0 0 0 224 224c112 0 204.8-83.2 220.8-192h134.4c16 108.8 108.8 192 220.8 192a222.634667 222.634667 0 0 0 224-224c0-25.6-3.2-48-12.8-70.4L896.004267 25.6z m-252.8 582.4c-35.2 35.2-57.6 76.8-64 128h-134.4c-6.4-51.2-32-92.8-64-128h262.4z m-419.2 320c-89.6 0-160-70.4-160-160s70.4-160 160-160S384.004267 678.4 384.004267 768s-70.4 160-160 160z m576 0C710.404267 928 640.004267 857.6 640.004267 768s70.4-160 160-160S960.004267 678.4 960.004267 768s-70.4 160-160 160z" p-id="2022" fill="#13227a"></path></svg>