<?xml version="1.0" standalone="no"?><!DOCTYPE svg PUBLIC "-//W3C//DTD SVG 1.1//EN" "http://www.w3.org/Graphics/SVG/1.1/DTD/svg11.dtd"><svg t="1562054244552" class="icon" viewBox="0 0 1024 1024" version="1.1" xmlns="http://www.w3.org/2000/svg" p-id="2114" xmlns:xlink="http://www.w3.org/1999/xlink" width="200" height="200"><defs><style type="text/css"></style></defs><path d="M390.016 960H129.92C57.216 960 0 901.312 0 826.688V133.312C0 58.688 57.216 0 129.984 0h572.032C774.784 0 832 58.688 832 133.312a34505.92 34505.92 0 0 0 0 160c0.128 16.512-15.36 26.688-30.976 26.688s-32.256-7.68-32.256-23.68l0.32-163.008c0-42.624-25.472-69.12-67.072-69.12H129.92c-41.6 0-65.92 26.496-65.92 69.12v693.376c0 42.624 24.32 69.952 65.92 69.952h260.032c15.552 0 25.984 15.616 25.984 31.616S405.568 960 390.016 960z m238.72-290.112c-8.448-4.48-11.712-14.08 0-28.48a134.4 134.4 0 0 1 80.128-46.72c32.256-5.696 59.968 0 87.04 10.88 19.2 7.744 32.384 18.88 26.368 28.032-6.016 9.152-20.416 4.48-42.496-4.224-22.08-8.704-42.24-13.824-70.912-6.656-28.672 7.232-38.016 17.28-51.968 31.424-14.016 14.208-22.592 18.752-28.16 15.744z m-22.144-422.592H219.648c-16.64 0-27.648-11.072-27.648-27.648 0-16.64 11.072-27.648 27.648-27.648h386.944c16.64 0 27.648 11.072 27.648 27.648s-11.008 27.648-27.648 27.648z m0 165.824H219.648c-16.64 0-27.648-11.072-27.648-27.648s11.072-27.648 27.648-27.648h386.944c16.64 0 27.648 11.072 27.648 27.648 0 16.64-11.008 27.648-27.648 27.648zM736 576C649.152 576 576 649.152 576 736s73.152 160 160 160 160-73.152 160-160S822.848 576 736 576z m176.832 298.112l102.848 102.912a26.752 26.752 0 0 1 0 38.656 26.752 26.752 0 0 1-38.656 0l-102.912-102.848A223.552 223.552 0 0 1 736 960 223.04 223.04 0 0 1 512 736C512 611.584 611.584 512 736 512S960 611.584 960 736c0 52.288-17.6 100.16-47.168 138.112z" p-id="2115" fill="#f6ef37"></path></svg>