<?xml version="1.0" standalone="no"?><!DOCTYPE svg PUBLIC "-//W3C//DTD SVG 1.1//EN" "http://www.w3.org/Graphics/SVG/1.1/DTD/svg11.dtd"><svg t="1562054275179" class="icon" viewBox="0 0 1024 1024" version="1.1" xmlns="http://www.w3.org/2000/svg" p-id="2014" xmlns:xlink="http://www.w3.org/1999/xlink" width="200" height="200"><defs><style type="text/css"></style></defs><path d="M871.008 140l-109.024 136-102.976-78.016-25.024-17.984-18.976 24-112 140-104.992-52.992-25.024-12-16 23.008-108.992 163.968-100.992-75.968-38.016 51.968 128 96 27.008 20 19.008-28 112-168 103.008 51.008 22.976 11.008 16-20 109.024-136 102.976 78.016 25.024 17.984 18.976-24 128-160zM864 384v512h64V384z m-256 96v416h64V480z m-256 32v384h64V512z m384 32v352h64V544zM96 576v320h64V576z m384 0v320h64V576z m-256 96v224h64v-224z" p-id="2015" fill="#1296db"></path></svg>